<svg xmlns="http://www.w3.org/2000/svg" viewBox="0 0 18 18" width="20" height="20">
  <g fill="#000">
    <path d="M8.25 4.6c0-1.55.72-2.62 2.16-3.2a.62.62 0 0 1 .46 1.15c-.92.37-1.37.98-1.37 2.05z"/>
    <path d="M9 4.1c3.3 0 5.95 1.55 5.95 3.3 0 .5-.4.9-.9.9H3.95c-.5 0-.9-.4-.9-.9C3.05 5.65 5.7 4.1 9 4.1z"/>
    <path d="M4.4 9.35h9.2c.34 0 .61.29.58.63-.13 1.62-.63 3.22-1.44 4.53-.9 1.47-2.13 2.44-3.45 2.69h-.58c-1.32-.25-2.55-1.22-3.45-2.69-.81-1.31-1.31-2.91-1.44-4.53a.58.58 0 0 1 .58-.63z"/>
  </g>
</svg>
